<svg width="159" height="30" viewBox="0 0 159 30" fill="none" xmlns="http://www.w3.org/2000/svg">
<path fill-rule="evenodd" clip-rule="evenodd" d="M47.1195 5.13498C46.136 4.80667 45.0865 5.28625 44.688 6.24609L37.4714 23.6284H41.3777L46.6086 10.3259L51.8385 23.6257H55.745L48.6017 6.42062C48.3298 5.76572 47.7826 5.31429 47.1482 5.15183C47.1387 5.14613 47.1291 5.14051 47.1195 5.13498ZM85.9869 5.7184C84.9256 5.35649 83.6678 5.17554 82.2135 5.17554H75.8829C75.6667 5.17554 75.48 5.24792 75.3228 5.39268C75.1655 5.53744 75.0869 5.70935 75.0869 5.9084V23.4427C75.0869 23.6417 75.1655 23.8136 75.3228 23.9584C75.48 24.1032 75.6667 24.1755 75.8829 24.1755H82.3609C83.7759 24.1755 85.0042 24.0036 86.0459 23.6598C87.1071 23.2979 87.9915 22.7913 88.6991 22.1398C89.4066 21.4884 89.9471 20.7013 90.3204 19.7784C90.7135 18.8555 90.9494 17.8241 91.028 16.6841C91.1066 15.345 91.1066 14.006 91.028 12.667C90.9494 11.527 90.7135 10.4955 90.3204 9.57268C89.9471 8.64982 89.3967 7.86268 88.6696 7.21125C87.9621 6.55982 87.0678 6.0622 85.9869 5.7184ZM86.6649 11.0655C86.8811 11.5541 87.0089 12.0879 87.0482 12.667C87.1268 14.006 87.1268 15.345 87.0482 16.6841C87.0089 17.2632 86.8811 17.806 86.6649 18.3127C86.4684 18.8193 86.1736 19.2536 85.7805 19.6155C85.3875 19.9775 84.8961 20.267 84.3065 20.4841C83.7169 20.6832 83.0193 20.7827 82.2135 20.7827H79.0667V8.5684H82.0661C82.9111 8.5684 83.6383 8.67697 84.2476 8.89411C84.8568 9.09315 85.358 9.38268 85.7511 9.76268C86.1638 10.1246 86.4684 10.5589 86.6649 11.0655ZM94.0674 5.55459C93.5151 5.55459 93.0674 6.0023 93.0674 6.55459V8.37929C93.0674 8.93157 93.5151 9.37929 94.0674 9.37929H96.0423V20.0047H94.0674C93.5151 20.0047 93.0674 20.4524 93.0674 21.0047V22.8294C93.0674 23.3817 93.5151 23.8294 94.0674 23.8294H101.842C102.394 23.8294 102.842 23.3817 102.842 22.8294V21.0047C102.842 20.4524 102.394 20.0047 101.842 20.0047H99.442V9.37929H101.842C102.394 9.37929 102.842 8.93157 102.842 8.37929V6.55459C102.842 6.0023 102.394 5.55459 101.842 5.55459H94.0674ZM148.313 6.55459C148.313 6.0023 148.76 5.55459 149.313 5.55459H157.087C157.639 5.55459 158.087 6.0023 158.087 6.55459V8.37929C158.087 8.93157 157.639 9.37929 157.087 9.37929H155.113V20.0047H157.087C157.639 20.0047 158.087 20.4524 158.087 21.0047V22.8294C158.087 23.3817 157.639 23.8294 157.087 23.8294H149.313C148.76 23.8294 148.313 23.3817 148.313 22.8294V21.0047C148.313 20.4524 148.76 20.0047 149.313 20.0047H151.713V9.37929H149.313C148.76 9.37929 148.313 8.93157 148.313 8.37929V6.55459ZM105.542 5.55459C104.989 5.55459 104.542 6.0023 104.542 6.55459V8.37929C104.542 8.93157 104.989 9.37929 105.542 9.37929H108.791V22.8282C108.791 23.3805 109.239 23.8282 109.791 23.8282H111.191C111.743 23.8282 112.191 23.3805 112.191 22.8282V9.37929H116.291C116.843 9.37929 117.291 8.93157 117.291 8.37929V6.55459C117.291 6.0023 116.843 5.55459 116.291 5.55459H105.542ZM118.99 6.55459C118.99 6.0023 119.438 5.55459 119.99 5.55459H130.739C131.292 5.55459 131.739 6.0023 131.739 6.55459V8.37929C131.739 8.93157 131.292 9.37929 130.739 9.37929H127.065V22.8282C127.065 23.3805 126.617 23.8282 126.065 23.8282H124.665C124.113 23.8282 123.665 23.3805 123.665 22.8282V9.37929H119.99C119.438 9.37929 118.99 8.93157 118.99 8.37929V6.55459ZM134.44 5.55459C133.887 5.55459 133.44 6.0023 133.44 6.55459V8.37929C133.44 8.93157 133.887 9.37929 134.44 9.37929H145.614C146.166 9.37929 146.614 8.93157 146.614 8.37929V6.55459C146.614 6.0023 146.166 5.55459 145.614 5.55459H134.44ZM135.564 13.3558C135.564 12.8035 136.012 12.3558 136.564 12.3558H143.488C144.04 12.3558 144.488 12.8035 144.488 13.3558V15.1805C144.488 15.7328 144.04 16.1805 143.488 16.1805H136.564C136.012 16.1805 135.564 15.7328 135.564 15.1805V13.3558ZM134.44 20.0047C133.887 20.0047 133.44 20.4524 133.44 21.0047V22.8294C133.44 23.3817 133.887 23.8294 134.44 23.8294H145.614C146.166 23.8294 146.614 23.3817 146.614 22.8294V21.0047C146.614 20.4524 146.166 20.0047 145.614 20.0047H134.44ZM72.8635 5.38962C72.7146 5.2469 72.5378 5.17554 72.333 5.17554H70.0991C69.8943 5.17554 69.7175 5.2469 69.5686 5.38962C69.4197 5.53235 69.3452 5.70183 69.3452 5.89807V16.7361C69.3452 17.4676 69.2335 18.092 69.0101 18.6093C68.8053 19.1267 68.5168 19.5549 68.1445 19.8938C67.7722 20.215 67.3161 20.4558 66.7763 20.6164C66.2551 20.7591 65.6873 20.8305 65.073 20.8305C64.4586 20.8305 63.8909 20.7591 63.3696 20.6164C62.8484 20.4558 62.4016 20.215 62.0293 19.8938C61.657 19.5549 61.3685 19.1267 61.1637 18.6093C60.9589 18.092 60.8565 17.4676 60.8565 16.7361V5.89807C60.8565 5.70183 60.7821 5.53235 60.6332 5.38962C60.4842 5.2469 60.3074 5.17554 60.1026 5.17554H57.8408C57.6361 5.17554 57.4592 5.2469 57.3103 5.38962C57.1614 5.53235 57.0869 5.70183 57.0869 5.89807V16.8699C57.0869 17.976 57.2451 18.9751 57.5616 19.8671C57.8967 20.7591 58.3993 21.5262 59.0695 22.1685C59.7396 22.8107 60.568 23.3103 61.5546 23.6671C62.5599 24.006 63.7326 24.1755 65.073 24.1755C66.3947 24.1755 67.5581 24.006 68.5634 23.6671C69.5686 23.3103 70.4063 22.8107 71.0764 22.1685C71.7466 21.5262 72.2492 20.7591 72.5843 19.8671C72.9194 18.9751 73.0869 17.976 73.0869 16.8699V5.89807C73.0869 5.70183 73.0125 5.53235 72.8635 5.38962Z" fill="black"/>
<path d="M14.9996 28.6657C11.3493 28.6657 7.91732 27.2442 5.33593 24.6628C0.00716519 19.3343 0.00716519 10.6637 5.33593 5.33533C7.91732 2.75393 11.3493 1.3324 14.9996 1.3324C18.65 1.3324 22.082 2.75393 24.6634 5.33533C29.9921 10.6637 29.9921 19.3343 24.6634 24.6628C22.082 27.2442 18.65 28.6657 14.9996 28.6657ZM14.9996 2.66577C11.7054 2.66577 8.60805 3.94863 6.27864 6.27809C1.47006 11.087 1.47006 18.9112 6.27864 23.7201C8.60805 26.0495 11.7054 27.3324 14.9996 27.3324C18.2939 27.3324 21.3913 26.0495 23.7207 23.7201C28.5292 18.9112 28.5292 11.087 23.7207 6.27809C21.3912 3.94863 18.2939 2.66577 14.9996 2.66577Z" fill="#265FF3"/>
<path d="M25.3717 3.68665L26.3144 4.62931L4.62967 26.3139L3.68701 25.3713L25.3717 3.68665Z" fill="#265FF3"/>
<path d="M29.2187 0.78127C28.7151 0.277388 28.0455 0 27.3333 0C26.6211 0 25.9515 0.277339 25.4479 0.78127C24.944 1.28486 24.6666 1.95446 24.6666 2.66669C24.6666 3.37892 24.944 4.04852 25.4479 4.55211C25.9515 5.05599 26.6211 5.33338 27.3333 5.33338C28.0455 5.33338 28.7151 5.05604 29.2187 4.55211C29.7226 4.04852 30 3.37892 30 2.66669C30 1.95446 29.7227 1.28486 29.2187 0.78127ZM28.276 3.60935C27.7721 4.11324 26.8945 4.11324 26.3906 3.60935C26.1387 3.35741 26 3.02276 26 2.66664C26 2.31053 26.1387 1.97587 26.3906 1.72393C26.6425 1.47199 26.9772 1.33332 27.3333 1.33332C27.6894 1.33332 28.0241 1.47199 28.276 1.72393C28.528 1.97587 28.6666 2.31053 28.6666 2.66664C28.6666 3.0228 28.528 3.35741 28.276 3.60935ZM2.66669 24.6666C1.95446 24.6666 1.28486 24.944 0.78127 25.4479C0.277388 25.9515 -4.7521e-08 26.6211 0 27.3333C4.7521e-08 28.0455 0.27734 28.7151 0.78127 29.2187C1.28486 29.7227 1.95446 30 2.66669 30C3.37892 30 4.04852 29.7227 4.55211 29.2187C5.05599 28.7151 5.33338 28.0455 5.33338 27.3333C5.33338 26.6211 5.05604 25.9515 4.55211 25.4479C4.04852 24.944 3.37892 24.6666 2.66669 24.6666ZM3.6094 28.276C3.10552 28.7799 2.22791 28.7799 1.72398 28.276C1.47204 28.0241 1.33337 27.6894 1.33337 27.3333C1.33337 26.9772 1.47204 26.6425 1.72398 26.3906C1.97592 26.1387 2.31058 26 2.66669 26C3.02281 26 3.35746 26.1387 3.6094 26.3906C3.86134 26.6425 4.00001 26.9772 4.00001 27.3333C4.00001 27.6894 3.86134 28.0241 3.6094 28.276ZM11.6989 4.63312C9.77247 4.63312 7.90661 5.027 6.15299 5.80403L5.91828 5.90787L5.81376 6.14224C3.52927 11.2741 4.66339 17.394 8.63601 21.3667C11.2164 23.9474 14.6467 25.3715 18.2952 25.3715H18.2955C20.2281 25.3715 22.0995 24.9718 23.8577 24.189L24.092 24.0831L24.1959 23.8477C26.469 18.7165 25.331 12.6035 21.3638 8.6364C18.7825 6.05505 15.3503 4.63312 11.6989 4.63312ZM18.2953 24.0325C15.0033 24.0325 11.9076 22.75 9.57882 20.4212C6.22997 17.0724 5.12183 12.0364 6.66987 7.61258L22.391 23.3337C21.0784 23.7962 19.7053 24.0325 18.2953 24.0325ZM23.333 22.3902L7.60586 6.66315C8.91773 6.20194 10.2901 5.9665 11.6989 5.9665C14.9941 5.9665 18.0918 7.24936 20.4212 9.57882C23.7683 12.9259 24.8779 17.964 23.333 22.3902Z" fill="#AFC5FF"/>
</svg>
